<?xml version="1.0"?>
<svg version="1.1" xmlns="http://www.w3.org/2000/svg" width="400px" height="100px" style=""><path fill="#" d="M57.75,78.52l0-33.48l-5.27-1.24l0-3.41l11.47-0.31l7.13,0c7.75,0,13.33,3.41,13.33,10.85c0,5.58-2.852,8.742-8.06,10.044c6.51,1.488,9.61,5.146,9.61,10.106c0,8.68-5.58,12.4-15.81,12.4l-17.67,0l0-3.72z M63.95,58.68l4.65,0c5.58,0,9.3-2.17,9.3-7.13c0-4.34-3.1-6.51-7.13-6.51l-6.82,0l0,13.64z M63.95,78.52l6.51,0c5.89,0,8.99-2.48,8.99-7.13c0-6.2-4.03-8.06-10.85-8.06l-4.65,0l0,15.19z M140.0364,40.08l0,27.9l7.13,0l0,5.27l-7.13,0l0,10.23l-6.386,0l0-10.23l-19.964,0l-0.62-4.65l19.84-29.45z M133.6504,67.98l0-20.46l-13.764,20.46l13.764,0z M180.1628,78.52l0-33.48l-5.27-1.24l0-3.41l11.47-0.31l7.13,0c7.75,0,13.33,3.41,13.33,10.85c0,5.58-2.852,8.742-8.06,10.044c6.51,1.488,9.61,5.146,9.61,10.106c0,8.68-5.58,12.4-15.81,12.4l-17.67,0l0-3.72z M186.3628,58.68l4.65,0c5.58,0,9.3-2.17,9.3-7.13c0-4.34-3.1-6.51-7.13-6.51l-6.82,0l0,13.64z M186.3628,78.52l6.51,0c5.89,0,8.99-2.48,8.99-7.13c0-6.2-4.03-8.06-10.85-8.06l-4.65,0l0,15.19z M242.386,78.52l1.24-7.13l4.34,0l0,12.09l-30.07,0l0-3.72l5.27-1.24l0-33.48l-5.27-1.24l0-3.41l17.05-0.31l0,3.72l-5.27,1.24l0,33.48l12.71,0z M276.7092,39.46c12.09,0,19.22,8.37,19.22,21.7c0,13.64-8.37,22.94-20.46,22.94s-18.91-7.75-18.91-22.01c0-13.64,7.75-22.63,20.15-22.63z M276.3992,44.73c-8.06,0-12.71,5.27-12.71,17.05c0,11.16,4.03,17.05,12.09,17.05s13.02-5.58,13.02-17.36c0-11.16-4.34-16.74-12.4-16.74z M343.2724,67.112l0,13.268s-6.572,3.72-15.81,3.72c-12.4,0-19.84-7.44-19.84-21.39c0-14.26,8.06-23.25,20.77-23.25c6.82,0,13.95,3.1,13.95,3.1l-0.31,10.23l-4.03,0l-1.86-6.82s-3.72-1.24-8.37-1.24c-8.37,0-13.02,6.2-13.02,17.67c0,11.16,5.58,16.43,13.64,16.43c4.34,0,8.68-1.55,8.68-1.55l0-10.168l-5.27-1.24l0-3.41l16.12-0.31l0,3.72z"/><path fill="#" d=""/></svg>
