<svg xmlns="http://www.w3.org/2000/svg" viewBox="0 11.960000038146973 207.25 37.60000228881836" data-asc="0.9814453125" width="207.25" height="37.60000228881836"><defs/><g fill="#000000"><g transform="translate(0, 0)"><path d="M21.66 29.79Q29.76 31.91 29.76 38.79Q29.76 41.65 28.89 43.25Q28.03 44.85 26.95 45.83Q23.44 49.07 14.84 49.07L0.02 49.07L0.02 46.39Q2.59 46.39 3.22 45.94Q3.86 45.48 3.98 44.97Q4.10 44.46 4.10 43.73L4.10 17.80Q4.10 16.21 3.56 15.82Q2.59 15.14 0 15.14L0 12.45L13.60 12.45Q23.49 12.45 26.56 17.14Q27.78 18.99 27.78 21.46Q27.78 27.27 21.66 29.79M12.92 29.00Q19.75 28.86 21.24 25Q21.73 23.73 21.73 22.17Q21.73 18.87 19.79 17.00Q17.85 15.14 13.13 15.14L9.59 15.14L9.59 29.00L12.92 29.00M14.38 46.39Q21.66 46.39 23.22 41.65Q23.68 40.26 23.68 38.62Q23.68 35.25 21.13 33.28Q18.58 31.30 14.14 31.20Q13.62 31.20 13.09 31.20Q12.55 31.20 11.99 31.20L9.59 31.20L9.59 46.39L14.38 46.39ZM33.28 46.39Q35.60 46.39 36.30 45.94Q37.01 45.48 37.21 44.97Q37.40 44.46 37.40 43.73L37.38 17.80Q37.38 16.21 36.84 15.82Q35.86 15.14 33.28 15.14L33.28 12.45L47.02 12.45L47.02 15.14Q44.70 15.14 43.99 15.59Q43.29 16.04 43.09 16.55Q42.90 17.07 42.90 17.80L42.90 46.24L51.32 46.24Q55.22 46.24 56.69 41.97L57.67 39.21L61.04 39.23L59.35 49.07L33.28 49.07L33.28 46.39ZM64.58 30.76Q64.58 26.12 65.99 22.52Q67.41 18.92 69.80 16.58Q74.51 11.96 81.84 11.96Q89.16 11.96 93.87 16.50Q99.10 21.51 99.10 30.64Q99.10 39.77 94.30 44.67Q89.50 49.56 81.84 49.56Q74.19 49.56 69.38 44.60Q64.58 39.65 64.58 30.76M81.91 46.39Q86.18 46.39 89.09 43.21Q92.75 39.21 92.75 31.03Q92.75 22.85 89.62 18.99Q86.50 15.14 81.76 15.14Q77.05 15.14 73.99 18.98Q70.92 22.83 70.92 30.52Q70.92 41.58 76.98 45.09Q79.20 46.39 81.91 46.39ZM105.49 41.69Q105.49 41.69 104.88 40.64Q104.27 39.60 103.59 36.88Q102.91 34.16 102.91 31.31Q102.91 28.47 103.36 26.17Q103.81 23.88 104.74 21.78Q106.71 17.31 110.77 14.64Q114.82 11.96 120.73 11.96Q126.64 11.96 130.57 14.89Q134.50 17.82 134.50 22.05Q134.50 24.93 132.20 25.93Q131.49 26.25 130.69 26.25Q129.13 26.25 128.15 25.27Q127.17 24.29 127.17 23.00Q127.17 20.41 129.25 19.43Q128.27 17.38 125.93 16.20Q123.58 15.01 121.12 15.01Q115.92 15.01 112.63 18.90Q109.35 22.78 109.35 30.53Q109.35 38.28 112.77 42.33Q116.19 46.39 121.07 46.39Q125.05 46.39 127.23 44.38Q129.42 42.38 129.42 39.98Q129.42 37.57 128.32 36.95Q127.22 36.33 123.29 36.33L123.29 33.08L134.47 33.08L134.47 49.07L131.20 49.07L130.30 46.14Q128.20 48.34 123.80 49.22Q122.19 49.56 120.14 49.56Q118.09 49.56 115.98 49.11Q113.87 48.66 111.94 47.71Q110.01 46.75 108.36 45.26Q106.71 43.77 105.49 41.69ZM140.58 35.60L157.74 12.45L162.13 12.45L162.13 34.18Q162.13 35.50 162.87 35.60Q163.13 35.64 163.48 35.64L167.33 35.64L167.33 38.55L163.35 38.55Q162.60 38.55 162.37 38.85Q162.13 39.16 162.13 40.11L162.13 43.87Q162.13 45.41 162.77 45.78Q163.84 46.44 166.77 46.44L166.77 49.07L151.17 49.07L151.17 46.44Q154.96 46.44 155.70 46.06Q156.45 45.68 156.60 45.13Q156.76 44.58 156.76 43.65L156.76 38.55L142.36 38.55L140.58 35.60M156.74 35.64L156.76 36.35L156.76 19.60L145.07 35.64L156.74 35.64ZM189.26 46.00Q198.95 46.00 198.95 33.96L198.95 17.80Q198.95 16.21 198.41 15.82Q197.44 15.14 194.85 15.14L194.85 12.45L207.25 12.45L207.25 15.14Q204.93 15.14 204.22 15.59Q203.52 16.04 203.32 16.55Q203.13 17.07 203.13 17.80L203.15 33.69Q203.15 45.68 194.65 48.63Q191.94 49.56 189.43 49.56Q186.91 49.56 185.22 49.21Q183.52 48.85 181.96 48.07Q178.54 46.36 176.51 42.90Q174.49 39.43 174.49 33.94L174.49 17.80Q174.49 16.24 173.95 15.82Q173.05 15.14 170.63 15.14L170.63 12.45L184.30 12.45L184.30 15.14Q181.84 15.14 181.09 15.59Q180.35 16.04 180.14 16.55Q179.93 17.07 179.93 17.80L179.93 34.45Q179.93 40.33 182.59 43.16Q185.25 46.00 189.26 46.00Z"/></g></g></svg>